<svg width="164" height="114" viewBox="0 0 164 114" fill="none" xmlns="http://www.w3.org/2000/svg"><path fill-rule="evenodd" clip-rule="evenodd" d="M145.761 80.371c4.131-3.123 8.182-6.186 12.228-9.254.092-.07.132-.21.225-.365l-.765-.348h4.406c-.171.073-.241.12-.315.132-1.264.177-2.323.773-3.328 1.533-3.152 2.381-6.325 4.735-9.489 7.102-.227.17-.442.355-.727.586.896.686 1.722 1.328 2.558 1.96 3.109 2.35 6.216 4.703 9.337 7.038.632.472 1.29.922 1.986 1.288.664.35 1.394.575 2.123.866h-6.938l1.015-.335c-.293-.286-.501-.532-.75-.724-2.992-2.289-5.989-4.57-8.985-6.852a776.75 776.75 0 00-2.201-1.673c-.12-.091-.251-.167-.445-.295-.015.316-.035.546-.036.776-.002 2.349-.002 4.698-.001 7.046 0 .159.002.317.009.475.033.848.304 1.435 1.372 1.462.073.002.145.036.216.169-.243 0-.486.002-.728 0-1.71-.014-3.421-.04-5.131-.036-.336 0-.671.136-1.009.158-.63.04-1.263.073-1.892.054-1.098-.034-2.071-.433-2.817-1.243-.748-.812-1.483-1.647-2.122-2.546-1.221-1.718-2.37-3.487-3.548-5.235-.233-.347-.463-.698-.652-.984h-3.51c-.016.364-.04.648-.04.931-.003 2.164-.002 4.328-.002 6.492 0 .106-.001.212.002.317.038 1.391.141 1.545 1.449 2.058h-5.23c.157-.097.22-.154.294-.178.92-.29 1.039-.433 1.089-1.38a19.6 19.6 0 00.02-1.03c.002-5.12.001-10.239.001-15.36 0-.184.01-.369-.002-.553-.075-1.144.118-1.49-1.394-2.023.207-.022.323-.045.44-.045 2.658.004 5.317.01 7.976.017 1.055.003 2.023.318 2.913.867 1.001.618 1.562 1.529 1.732 2.698.333 2.286-.554 4.063-2.258 5.5-.36.304-.761.56-1.155.849.013.075.004.162.041.22 1.728 2.713 3.44 5.438 5.552 7.876.409.473.876.932 1.403 1.26 1.509.94 3.029.888 4.55-.17.02-.317.061-.655.061-.993.004-5.225.005-10.45-.002-15.676 0-.394-.038-.79-.101-1.18-.135-.827-.324-.989-1.181-1.096-.099-.013-.198-.029-.292-.128h5.7c-.233.076-.311.112-.392.125-1.045.17-1.336.433-1.348 1.49-.027 2.692-.006 5.384-.002 8.075 0 .05.03.1.09.282zm-19.907.113c1.183 0 2.266.088 3.329-.02 2.138-.215 3.446-1.498 3.749-3.619a5.068 5.068 0 00-.073-1.796c-.443-1.968-1.404-3.535-3.547-3.981-.688-.144-1.403-.172-2.109-.216-.432-.027-.87.02-1.349.033v9.599zM58.735 89.02c-.134-1.018-.294-2.033-.436-3.05-.396-2.844-.79-5.688-1.183-8.532-.224-1.618-.46-3.235-.664-4.855-.132-1.055.26-1.645 1.245-1.991.097-.034.184-.098.38-.207h-3.273l-7.14 16.572-.186.001-7.107-16.552H36.66c.152.151.32.206.487.266.938.343 1.572 1.368 1.448 2.354-.128 1.02-.258 2.039-.402 3.056-.397 2.818-.8 5.634-1.2 8.45-.239 1.67-.483 3.337-.718 5.007-.098.688-.357 1.217-1.146 1.277-.01 0-.013.069-.026.142.487 0 .96.002 1.431 0 .47-.001.939-.004 1.408-.006-.79-.539-.883-.731-.757-1.631.246-1.748.492-3.496.73-5.245.39-2.871.772-5.744 1.163-8.615.054-.395.136-.786.205-1.18 2.589 5.542 4.97 11.116 7.421 16.658l.19-.013c2.406-5.56 4.811-11.123 7.218-16.684l.182.028c.087.666.169 1.333.263 1.998.608 4.303 1.223 8.607 1.824 12.911.046.336.096.719-.023 1.012-.116.289-.444.491-.666.719h4.337c-.983-.275-1.182-1.044-1.293-1.89zm37.792-8.252c1.169-.05 2.33-.127 3.452-.55 1.815-.684 2.928-1.949 3.135-3.896.315-2.961-.818-5.009-4.089-5.748-.686-.156-1.408-.203-2.114-.212-2.079-.026-4.158-.01-6.236-.007-.15 0-.301.028-.611.058 1.195.411 1.323.578 1.403 1.69.01.132.008.264.008.396 0 5.514.002 11.028-.001 16.541-.001 1.123-.162 1.34-1.206 1.75-.03.011-.04.078-.061.125h5.24c-.229-.09-.295-.125-.366-.142-1.04-.263-1.178-.43-1.234-1.504-.007-.132-.005-.265-.005-.396 0-5.699 0-11.396.002-17.095 0-.23.032-.458.052-.72 1.044-.12 2.032-.044 3.022.077 1.6.196 2.724 1.04 3.406 2.485.449.952.563 1.966.496 3.01-.118 1.825-1.337 3.301-3.111 3.732-.397.096-.804.147-1.206.22l.024.186zm-77.423 10.15h-4.618l.579-.501c-.056-.273-.075-.593-.187-.875-1.034-2.594-2.084-5.183-3.13-7.773-.03-.073-.074-.14-.139-.26h-5.99c-1.16 2.926-2.425 5.861-3.493 8.874l.653.54H0c1.09-.328 1.425-1.253 1.784-2.162 2.364-5.98 4.727-11.959 7.104-17.933.114-.287.104-.706.622-.793.095.16.223.32.295.5 2.382 5.916 4.76 11.833 7.137 17.75l.21.511c.394.936.786 1.872 1.952 2.122zm-7.75-10.046L8.676 74.1l-.158.004-2.681 6.77h5.517zm61.389.625h-5.88c-.62 1.038-3.425 8.232-3.488 8.963.15.126.322.27.55.464h-2.79c1.163-.325 1.483-1.335 1.858-2.281 2.35-5.93 4.687-11.863 7.035-17.793.117-.295.292-.567.44-.85l.204.007c.124.241.27.474.37.724 1.972 4.888 3.938 9.778 5.906 14.668l1.383 3.449c.37.927.812 1.784 1.91 2.066H75.64l.566-.482c-.05-.273-.058-.596-.17-.877-1.028-2.598-2.073-5.188-3.117-7.778-.04-.095-.11-.176-.175-.28zm-2.945-7.476c-.661 1.13-2.64 6.29-2.646 6.91 1.746-.001 3.492.013 5.38-.01l-2.734-6.9zm37.291 7.488l-3.555 8.93.618.469h-2.834c.243-.112.384-.196.536-.243.402-.123.689-.376.875-.748.164-.329.335-.657.47-.999 2.378-6 4.751-12.004 7.128-18.006.114-.288.251-.568.362-.817.492-.113.521.248.622.496.511 1.244 1.011 2.491 1.512 3.738l5.742 14.304c.02.049.043.096.064.144.403.922.76 1.887 1.928 2.144h-4.469c.148-.218.353-.405.406-.628.051-.211-.018-.477-.103-.69-1.059-2.642-2.13-5.278-3.2-7.915-.018-.047-.061-.084-.134-.18h-5.968zm5.727-.68c-.904-2.299-1.766-4.532-2.746-6.91l-2.708 6.851c.685.193 4.492.227 5.454.06zm-92.41-10.34c.1.023.199.043.297.069.86.227 1.019.412 1.105 1.292.013.132.018.264.018.396.001 5.618.006 11.235-.002 16.854-.003 1.18-.195 1.396-1.316 1.699-.036.01-.06.066-.09.101 1.526.17 13.442.094 14.006-.092v-4.626c-.176.366-.23.748-.28 1.131-.25 1.915-1.16 2.86-3.083 2.959a28.08 28.08 0 01-4.172-.105c-1.795-.176-2.542-1.033-2.688-2.825-.01-.131-.006-.264-.006-.396 0-4.906-.003-9.812 0-14.718.002-1.24.141-1.404 1.362-1.73.02-.007.025-.067.053-.145h-4.751c-.156 0-.312.014-.466.02l.014.116zm29.57 35.99c.465.729.863 1.41 1.318 2.049.856 1.201 1.714 2.403 2.633 3.556.689.866 1.607 1.375 2.762 1.203.405-.061.793-.241 1.33-.411-.175.187-.248.307-.355.371-1.04.622-2.173.785-3.347.597-.662-.106-1.26-.42-1.688-.952-.71-.88-1.419-1.766-2.074-2.688-.746-1.051-1.434-2.142-2.151-3.223h-2.327c-.034.206-.089.38-.09.554-.006 1.662-.01 3.325 0 4.987.005.724.107.863.764 1.208h-3.253c.805-.143.872-.761.88-1.385.018-1.16.007-2.322.007-3.482v-7.283c0-.211.006-.423-.006-.633-.035-.604-.14-1.166-.86-1.358 1.717 0 3.433-.01 5.15.007.47.004.954.033 1.408.145 2.008.495 2.896 2.454 2.034 4.417-.34.771-.905 1.351-1.546 1.869-.163.132-.331.254-.59.452zm-3.944.128c.757 0 1.418.063 2.063-.011 2.036-.238 3.055-1.515 2.788-3.527-.159-1.193-.67-2.231-1.826-2.779-.958-.454-1.976-.374-3.025-.271v6.588zm56.005.381h-2.382c-.034.188-.087.338-.087.489-.006 1.61-.013 3.219 0 4.829.005.583.062 1.165.928 1.429h-3.481c.802-.215.961-.672.96-1.246-.003-3.853.002-7.706 0-11.56 0-.58-.106-1.114-.87-1.266l.118-.171c2.066.062 4.141.03 6.197.21 2.255.2 3.333 2.678 2.13 4.766-.308.534-.793.971-1.222 1.429-.192.205-.446.353-.728.57.208.334.387.651.592.949.913 1.323 1.825 2.647 2.755 3.956.243.342.555.634.832.951.788.9 2.199 1.35 3.446.668a.46.46 0 01.351-.05c-.113.11-.209.246-.341.324-.99.591-2.074.748-3.196.593-.939-.129-1.66-.662-2.201-1.415-1.076-1.498-2.127-3.013-3.184-4.523-.212-.3-.407-.613-.617-.932zm-2.414-.466c.961.196 2.257.139 3.004-.116a2.803 2.803 0 001.382-1c1.288-1.73.13-4.905-1.836-5.308-.836-.17-1.657-.138-2.55-.114v6.538zm-19.378.927c-.003-3.364 1.954-6.42 4.906-7.552 1.91-.733 3.877-.79 5.788-.043 2.366.923 3.754 2.715 3.958 5.254.216 2.681-.59 5.055-2.595 6.936-1.173 1.102-2.578 1.678-4.169 1.88a8.692 8.692 0 01-2.976-.117c-2.704-.584-5.035-3.252-4.912-6.358zm13.819-.116c-.04-.392-.043-.792-.129-1.174-.619-2.778-2.373-4.557-4.946-5.613-3.192-1.311-5.91.485-7.097 2.576-.47.826-.645 1.74-.622 2.662.062 2.4 1.073 4.373 2.882 5.922 1.474 1.263 3.158 1.858 5.113 1.425 3.048-.676 4.885-3.37 4.799-5.798zM59.3 101.007c.005 3.826-.003 7.654.007 11.48.002.609-.097 1.107-.805 1.211h9.413v-1.76c-.342 1.013-.578 1.316-1.222 1.332a97.093 97.093 0 01-4.58.003c-.627-.014-.943-.346-1.08-.967a3.36 3.36 0 01-.057-.708 576.53 576.53 0 010-4.117c.001-.203.039-.405.063-.655.298-.015.556-.039.813-.04 1-.005 2-.004 3.001-.001.543.001 1.097-.044 1.55.423v-1.02c-.418.094-.78.238-1.148.248-1.184.032-2.369.015-3.554.009-.225-.001-.45-.043-.666-.066v-6.282c.133-.04.206-.081.281-.082 1.42-.007 2.842-.006 4.264-.011.747-.002 1.264.286 1.405 1.079.02.115.086.222.13.332l.095-.021v-1.79h-8.676c.754.451.765.451.766 1.403zm57.197-.984c1.13-.011 2.26-.012 3.391-.02.437-.003.675.218.732.847l.613-1.52c-.38.072-.767.207-1.155.209-3.155.017-6.31.015-9.465.002-.345-.001-.69-.105-1.075-.169l.532 1.352c.08-.68.47-.723.885-.723.974-.002 1.946-.005 2.919.002.203.001.406.042.633.068.023.222.056.401.056.579.004 3.928.006 7.855-.004 11.783-.001.28-.028.615-.179.825-.155.218-.478.316-.739.474h3.387c-.617-.112-.786-.541-.809-1.089-.015-.34-.068-.681-.068-1.022-.005-3.532-.003-7.065-.003-10.597v-.873c.206-.077.277-.128.349-.128zM73.669 113.75a9.746 9.746 0 001.026-.051c.958-.107 1.847-.357 2.536-1.118 1.526-1.686 1.779-4.883-1.248-6.362-.824-.402-1.725-.641-2.58-.981-.487-.193-.977-.399-1.423-.669-.866-.525-1.152-1.359-.994-2.319.186-1.136.857-1.932 1.956-2.27 1.415-.437 2.705-.15 3.818.85.186.167.37.339.555.509l.122-.076-.58-1.528c-.608-.12-1.17-.252-1.739-.334a6.193 6.193 0 00-1.103-.033c-1.8.066-3.363 1.316-3.675 2.926-.366 1.889.459 3.766 2.288 4.44.889.327 1.784.641 2.65 1.023.522.23 1.043.52 1.474.89.715.612.947 1.43.716 2.363-.307 1.236-1.367 2.146-2.735 2.265-.651.057-1.319.06-1.969-.008-1.632-.171-2.54-1.069-2.763-2.657-.035-.248-.048-.498-.071-.747-.111 1.082-.114 2.161-.108 3.239 0 .18.034.358.065.65 1.314 0 2.548.003 3.782-.002zM80.564 2.058a.201.201 0 01-.324.019L78.757.268a.201.201 0 00-.336.039l-1.034 2.097a.201.201 0 01-.32.056L75.388.832a.201.201 0 00-.33.076l-.525 1.467v.001l-.263.734a.201.201 0 01-.312.092l-1.853-1.426a.201.201 0 00-.319.114l-.532 2.277a.201.201 0 01-.3.127l-2.003-1.205a.201.201 0 00-.304.149l-.27 2.323a.201.201 0 01-.283.16l-2.128-.969a.201.201 0 00-.284.183l-.003 2.34a.201.201 0 01-.263.19l-2.225-.72a.201.201 0 00-.262.215l.264 2.324a.201.201 0 01-.24.22l-2.292-.462a.201.201 0 00-.235.243l.526 2.279a.201.201 0 01-.213.246l-2.33-.198a.201.201 0 00-.206.268l.783 2.204a.201.201 0 01-.184.269l-2.337.07a.201.201 0 00-.174.29l1.029 2.1a.201.201 0 01-.152.287l-2.314.336a.201.201 0 00-.14.308l1.261 1.97a.201.201 0 01-.118.302l-2.26.598a.201.201 0 00-.105.322l1.478 1.812a.201.201 0 01-.083.315l-2.177.851a.201.201 0 00-.068.332l1.675 1.632a.201.201 0 01-.046.322l-2.067 1.094a.201.201 0 00-.029.337l1.85 1.431a.201.201 0 01-.01.325l-1.928 1.323a.201.201 0 00.01.338l2 1.21a.202.202 0 01.029.325l-.589.511v.001l-1.176 1.022a.201.201 0 00.048.335l2.125.974a.201.201 0 01.065.319L53.02 37.47a.201.201 0 00.086.327l2.223.726c.13.042.18.199.1.31l-.457.63-.001.002-.914 1.261a.201.201 0 00.123.316l2.29.467a.201.201 0 01.136.296l-1.147 2.038a.201.201 0 00.158.3l1.551.135h.002l.776.067c.136.012.22.153.168.279l-.907 2.156a.201.201 0 00.19.279l2.337-.064a.201.201 0 01.2.258l-.657 2.245a.201.201 0 00.222.256l2.314-.33a.2.2 0 01.227.233l-.396 2.305a.201.201 0 00.25.229l1.506-.394h.001l.754-.198c.132-.034.26.07.252.206l-.13 2.335a.201.201 0 00.273.2l2.18-.847a.202.202 0 01.274.176l.136 2.335a.201.201 0 00.295.167l2.069-1.09c.12-.063.268.01.292.144l.401 2.305a.201.201 0 00.312.131l1.286-.877.002-.001.643-.44a.201.201 0 01.307.11l.661 2.243c.042.14.214.191.325.096l1.178-1.02h.001l.59-.51a.201.201 0 01.317.074l.912 2.153a.201.201 0 00.334.058l1.583-1.721a.201.201 0 01.323.037l1.152 2.035a.201.201 0 00.338.02l.917-1.26v-.001l.46-.63c.08-.11.244-.11.325 0l.459.63v.001l.917 1.26a.201.201 0 00.338-.02l1.152-2.035a.201.201 0 01.323-.037l1.583 1.72a.201.201 0 00.334-.057l.912-2.153a.201.201 0 01.317-.074l1.77 1.53c.11.095.282.045.324-.096l.44-1.494v-.001l.221-.748a.201.201 0 01.307-.11l1.931 1.318a.201.201 0 00.312-.131l.267-1.535v-.002l.134-.768a.201.201 0 01.292-.143l2.07 1.089a.2.2 0 00.294-.167l.09-1.555v-.001l.046-.779a.201.201 0 01.274-.175l.727.281 1.453.564a.201.201 0 00.273-.199l-.13-2.335a.201.201 0 01.252-.206l.754.197h.001l1.507.395a.201.201 0 00.249-.229l-.264-1.535v-.002l-.132-.768a.202.202 0 01.227-.233l2.314.33a.201.201 0 00.222-.256l-.437-1.495V48l-.219-.748a.201.201 0 01.199-.258l2.337.064a.202.202 0 00.191-.28l-.908-2.155a.201.201 0 01.168-.279l.777-.067h.001l1.551-.136a.201.201 0 00.158-.299l-.764-1.357-.001-.002-.382-.68a.201.201 0 01.135-.295l2.291-.467a.202.202 0 00.123-.316l-1.372-1.894a.202.202 0 01.1-.31l2.223-.725a.201.201 0 00.086-.327l-1.579-1.725a.202.202 0 01.065-.32l.708-.324h.002l1.415-.65a.201.201 0 00.048-.334l-1.175-1.022-.001-.001-.589-.511a.202.202 0 01.028-.325l2.001-1.21a.202.202 0 00.01-.338l-1.929-1.323a.202.202 0 01-.009-.325l.617-.477h.001l1.232-.954a.202.202 0 00-.029-.337l-1.377-.728-.001-.001-.689-.365a.202.202 0 01-.046-.322l1.675-1.632a.201.201 0 00-.068-.332l-2.177-.851a.202.202 0 01-.083-.315l1.478-1.812a.201.201 0 00-.105-.322l-2.26-.598a.201.201 0 01-.118-.303l1.261-1.969a.201.201 0 00-.14-.308l-2.314-.336a.201.201 0 01-.152-.287l.343-.7.001-.002.685-1.399a.2.2 0 00-.174-.29l-2.337-.07a.201.201 0 01-.184-.268l.783-2.204a.201.201 0 00-.207-.268l-2.329.198a.201.201 0 01-.213-.246l.526-2.28a.2.2 0 00-.235-.242l-2.292.462a.202.202 0 01-.24-.22l.264-2.324a.202.202 0 00-.262-.214l-2.225.72a.201.201 0 01-.263-.192v-.78l-.003-1.559a.201.201 0 00-.284-.183l-2.128.97a.201.201 0 01-.284-.16l-.09-.775v-.002l-.179-1.547a.201.201 0 00-.303-.15l-2.004 1.206a.201.201 0 01-.3-.127l-.532-2.277a.201.201 0 00-.319-.114l-1.853 1.426a.201.201 0 01-.312-.092l-.263-.734v-.001L88.942.908a.201.201 0 00-.33-.076l-1.118 1.084-.001.001-.56.543a.201.201 0 01-.32-.056l-.345-.699v-.001l-.69-1.397a.201.201 0 00-.335-.039L83.76 2.077a.201.201 0 01-.324-.019L82.169.092a.201.201 0 00-.338 0l-1.267 1.966zM82 1.688l-.59.915a1.207 1.207 0 01-1.948.112l-.69-.843-.483.978a1.207 1.207 0 01-1.923.332l-.781-.758-.368 1.026a1.207 1.207 0 01-1.872.55l-.864-.664-.248 1.06a1.207 1.207 0 01-1.797.76l-.934-.56-.125 1.081a1.207 1.207 0 01-1.7.96l-.99-.45-.002 1.089c-.001.819-.8 1.4-1.579 1.147l-1.036-.335.123 1.082a1.207 1.207 0 01-1.438 1.32l-1.068-.215.245 1.062a1.208 1.208 0 01-1.278 1.476l-1.085-.092.365 1.026a1.208 1.208 0 01-1.102 1.612l-1.088.032.48.979a1.208 1.208 0 01-.912 1.726l-1.077.157.587.917c.442.69.084 1.61-.708 1.82l-1.053.278.688.844c.518.635.267 1.59-.496 1.888l-1.014.397.78.76c.587.572.446 1.55-.278 1.933l-.962.51.861.666c.648.5.62 1.488-.055 1.951l-.899.617.932.563c.701.424.786 1.408.167 1.946l-.822.714.99.454c.745.341.94 1.31.388 1.913l-.736.804 1.036.338a1.208 1.208 0 01.603 1.857l-.64.882 1.068.218a1.208 1.208 0 01.81 1.776l-.534.95 1.085.094a1.208 1.208 0 011.008 1.672l-.423 1.004 1.089-.03a1.208 1.208 0 011.192 1.546l-.306 1.046 1.078-.154a1.208 1.208 0 011.36 1.4l-.184 1.074 1.054-.276a1.207 1.207 0 011.51 1.236l-.06 1.088 1.015-.394a1.207 1.207 0 011.642 1.056l.064 1.087.963-.507a1.207 1.207 0 011.752.861l.187 1.074.9-.614a1.207 1.207 0 011.838.656l.308 1.045.824-.712a1.207 1.207 0 011.9.442l.426 1.003.737-.802a1.207 1.207 0 011.94.223l.536.948.641-.88a1.207 1.207 0 011.952 0l.641.88.537-.948a1.207 1.207 0 011.939-.223l.737.802.425-1.003a1.207 1.207 0 011.901-.442l.824.712.308-1.045a1.207 1.207 0 011.838-.656l.9.614.187-1.073a1.207 1.207 0 011.752-.862l.963.507.064-1.087a1.207 1.207 0 011.642-1.056l1.015.394-.06-1.088a1.207 1.207 0 011.51-1.236l1.054.276-.185-1.074a1.208 1.208 0 011.361-1.4l1.078.154-.306-1.046a1.208 1.208 0 011.192-1.546l1.089.03-.423-1.004a1.208 1.208 0 011.008-1.672l1.085-.095-.535-.95a1.209 1.209 0 01.811-1.775l1.067-.218-.639-.882a1.208 1.208 0 01.603-1.857l1.036-.338-.736-.804a1.208 1.208 0 01.388-1.913l.99-.454-.822-.714a1.208 1.208 0 01.167-1.946l.932-.563-.899-.617a1.208 1.208 0 01-.055-1.951l.861-.667-.962-.51a1.208 1.208 0 01-.278-1.932l.78-.76-1.014-.397a1.208 1.208 0 01-.497-1.888l.689-.844-1.053-.279a1.208 1.208 0 01-.708-1.819l.587-.917-1.077-.157a1.208 1.208 0 01-.911-1.726l.479-.979-1.088-.032a1.208 1.208 0 01-1.102-1.612l.365-1.026-1.085.091a1.207 1.207 0 01-1.278-1.475l.245-1.062-1.068.216a1.207 1.207 0 01-1.438-1.32l.123-1.083-1.036.335a1.207 1.207 0 01-1.579-1.147l-.001-1.09-.991.451a1.207 1.207 0 01-1.7-.96l-.125-1.082-.934.562a1.207 1.207 0 01-1.797-.76l-.248-1.061-.864.664c-.649.5-1.596.221-1.872-.55l-.367-1.026-.782.758a1.208 1.208 0 01-1.924-.332l-.481-.978-.69.843a1.207 1.207 0 01-1.95-.111L82 1.688z" fill="#fff"/><path fill-rule="evenodd" clip-rule="evenodd" d="M82 55.187c13.891 0 25.152-11.266 25.152-25.162 0-13.897-11.261-25.163-25.152-25.163-13.891 0-25.152 11.266-25.152 25.163 0 13.896 11.26 25.162 25.152 25.162zm14.089-13.05c.7.396 1.364.85 2.008 1.364l-.023-.07a2.885 2.885 0 00-.055-.156 9.206 9.206 0 00-1.748-2.844 9.24 9.24 0 00-3.97-2.624c-1.197-.412-2.431-.59-3.692-.608-.849-.011-1.684.063-2.507.284-1.175.315-2.285.803-3.34 1.41-.895.517-1.777 1.056-2.66 1.595l-.91.555c-.835.507-1.671 1.011-2.562 1.412-.63.283-1.28.505-1.967.586a9.985 9.985 0 01-2.211-.007 18.241 18.241 0 01-2.74-.505l-.472-.123-.32-.084.05.047c.021.022.036.036.051.05.538.474 1.114.892 1.727 1.256 1.71 1.013 3.525 1.563 5.52 1.373a10.488 10.488 0 002.655-.603c.94-.347 1.825-.815 2.701-1.305l.517-.29c.753-.425 1.506-.85 2.287-1.22 1.41-.666 2.88-1.093 4.432-1.19a12.465 12.465 0 013.208.207c1.416.28 2.756.776 4.02 1.49zm-3.674-8.813l.021.046c.023.048.042.098.063.154l.033.083a6.982 6.982 0 01-.21-.056 3.419 3.419 0 00-.423-.097l-.225-.034a11.114 11.114 0 00-1.167-.132 30.191 30.191 0 00-2.351-.026c-1.252.044-2.498.17-3.726.433-.909.195-1.769.534-2.601.951-.951.477-1.845 1.053-2.73 1.645a120.75 120.75 0 01-2.384 1.567c-.336.212-.694.388-1.05.563l-.037.018c-.583.286-1.204.43-1.846.49-1.01.096-1.999-.022-2.979-.265a1.411 1.411 0 01-.168-.055.062.062 0 01-.021-.018l-.015-.015.204-.076a9.8 9.8 0 00.424-.165 10.139 10.139 0 003.246-2.212c1.069-1.071 2.151-2.126 3.342-3.055.986-.769 2.019-1.457 3.144-1.992.849-.404 1.739-.67 2.647-.88.862-.2 1.731-.35 2.613-.421.578-.047 1.157-.092 1.737-.062.506.027 1.01.077 1.509.182.653.137 1.16.489 1.567 1.023.416.548.762 1.14 1.071 1.758.108.214.21.431.312.648zm-8.08-10.726c.686-.083 1.374-.16 2.061-.23.206-.021.413-.032.62-.043l.289-.015 1.613 3.294-.248-.022c-.171-.016-.335-.032-.5-.038-.626-.024-1.25.034-1.872.103a24.11 24.11 0 00-2.49.437c-1.75.382-3.416 1.008-5.027 1.803a45.05 45.05 0 00-4.429 2.517l-.118.074c-.006.003-.013.002-.025.001a.329.329 0 00-.025 0l.068-.18.163-.427a55.481 55.481 0 011.376-3.248 4.247 4.247 0 011.999-2.063c1.312-.66 2.657-1.22 4.093-1.529a27.33 27.33 0 012.452-.434zm-3.179-7.795l1.265-2.895 3.037 6.18-.25.03a18.814 18.814 0 00-2.915.543c-.715.185-1.428.382-2.14.578l-.934.257-.061.016-.067.017 2.065-4.726zm12.682 29.182l.062.032c.006.003.01.01.018.022l.022.029-.132-.024a3.838 3.838 0 00-.249-.041l-.369-.045a47.983 47.983 0 00-1.259-.144c-.659-.064-1.317-.024-1.972.054a11.42 11.42 0 00-3.012.809c-.938.387-1.83.871-2.717 1.364l-.095.053c-.804.446-1.608.893-2.451 1.257-.706.305-1.426.564-2.186.689a7.86 7.86 0 01-1.93.073 8.815 8.815 0 01-2.698-.67.808.808 0 01-.256-.158l.087.003c.06.002.12.004.18.01 1.668.15 3.286-.082 4.862-.655 1.116-.406 2.17-.95 3.215-1.514l.204-.11c.847-.46 1.695-.918 2.584-1.291a9.687 9.687 0 012.588-.714 9.602 9.602 0 012.111-.018 9.598 9.598 0 013.154.867c.081.038.16.08.24.122z" fill="#fff"/></svg>