<svg width="215" height="50" viewBox="0 0 215 50" fill="none" xmlns="http://www.w3.org/2000/svg"><path fill-rule="evenodd" clip-rule="evenodd" d="M58.603.167C69.91.04 80.718 8.183 82.514 20.767c1.77 12.407-6.323 23.921-18.575 26.62-6.875 1.513-13.245.205-19.075-3.696-.434-.29-.792-.335-1.282-.208-3.585.925-7.174 1.836-10.77 2.722-2.283.562-4.363-.522-5.068-2.59-.308-.904-.283-1.802.013-2.707 1.967-6.005 3.927-12.012 5.891-18.018.658-2.012 1.284-4.035 1.986-6.03C38.944 7.456 45.572 1.971 55.461.35c1.045-.172 2.092-.166 3.142-.183zm8.435 23.884c-.01-4.638-3.767-8.352-8.444-8.346-4.617.006-8.297 3.734-8.376 8.324-.07 4.038 3.195 8.334 8.406 8.399 4.644.057 8.423-3.748 8.414-8.377z" fill="#02B897"/><path fill-rule="evenodd" clip-rule="evenodd" d="M39.07 5.146c-3.973 3.931-6.141 8.833-7.516 14.098-.467.031-.537-.3-.7-.491-2.352-2.724-5.3-3.794-8.8-2.874-3.463.91-5.525 3.261-6.188 6.74-.912 4.784 3.05 9.564 7.943 9.653.585.01 1.178 0 1.757-.076.545-.072 1.078-.242 1.622-.37.24.366-.022.67-.117.965-.737 2.309-1.473 4.619-2.259 6.912-.948 2.767-.482 5.25 1.385 7.494.113.136.288.245.267.567-4.326.44-8.467-.271-12.4-2.085-5.362-2.472-9.349-6.377-11.826-11.712C-2.773 23.173.865 10.572 10.815 3.984c9.54-6.318 21.624-4.512 28.255 1.162z" fill="#02B897"/><path d="M109.456 28.336c3.072 0 5.76-1.512 7.2-3.888l-3.312-1.92c-.72 1.296-2.184 2.064-3.888 2.064-2.976 0-4.896-1.992-4.896-4.992s1.92-4.992 4.896-4.992c1.704 0 3.144.768 3.888 2.064l3.312-1.92c-1.464-2.376-4.152-3.888-7.2-3.888-5.064 0-8.736 3.792-8.736 8.736 0 4.944 3.672 8.736 8.736 8.736zM127.165 16v1.128c-.792-.912-1.968-1.464-3.576-1.464-3.144 0-5.736 2.76-5.736 6.336 0 3.576 2.592 6.336 5.736 6.336 1.608 0 2.784-.552 3.576-1.464V28h3.6V16h-3.6zm-2.856 8.928c-1.656 0-2.856-1.128-2.856-2.928s1.2-2.928 2.856-2.928 2.856 1.128 2.856 2.928-1.2 2.928-2.856 2.928zm12.388-5.424c0-.432.384-.672 1.008-.672.792 0 1.272.432 1.608 1.056l3.072-1.656c-1.008-1.704-2.736-2.568-4.68-2.568-2.496 0-4.704 1.32-4.704 3.936 0 4.152 5.904 3.456 5.904 4.776 0 .48-.432.744-1.296.744-1.056 0-1.728-.504-2.04-1.416l-3.12 1.776c.936 1.944 2.76 2.856 5.16 2.856 2.592 0 4.992-1.176 4.992-3.936 0-4.44-5.904-3.528-5.904-4.896zm14.733-3.84c-1.584 0-2.784.576-3.432 1.464V11.2h-3.6V28h3.6v-6.552c0-1.704.912-2.472 2.232-2.472 1.152 0 2.088.696 2.088 2.184V28h3.6v-7.368c0-3.24-2.064-4.968-4.488-4.968zm13.44-4.464h-6.36V28h3.84v-5.28h2.52c3.312 0 5.88-2.568 5.88-5.76 0-3.192-2.568-5.76-5.88-5.76zm0 7.92h-2.52V14.8h2.52c1.176 0 2.04.936 2.04 2.16 0 1.224-.864 2.16-2.04 2.16zm12.71 9.216c3.528 0 6.36-2.76 6.36-6.336 0-3.576-2.832-6.336-6.36-6.336-3.528 0-6.36 2.76-6.36 6.336 0 3.576 2.832 6.336 6.36 6.336zm0-3.504c-1.56 0-2.76-1.128-2.76-2.832s1.2-2.832 2.76-2.832c1.56 0 2.76 1.128 2.76 2.832s-1.2 2.832-2.76 2.832zm10.196-9.888c1.176 0 2.16-.984 2.16-2.16 0-1.176-.984-2.16-2.16-2.16-1.176 0-2.16.984-2.16 2.16 0 1.176.984 2.16 2.16 2.16zM185.976 28h3.6V16h-3.6v12zm13.267-12.336c-1.584 0-2.784.576-3.432 1.464V16h-3.6v12h3.6v-6.552c0-1.704.912-2.472 2.232-2.472 1.152 0 2.088.696 2.088 2.184V28h3.6v-7.368c0-3.24-2.064-4.968-4.488-4.968zm13.992 3.792V16h-2.472v-3.36l-3.6 1.08V16h-1.92v3.456h1.92v4.248c0 3.36 1.368 4.776 6.072 4.296v-3.264c-1.584.096-2.472 0-2.472-1.032v-4.248h2.472z" fill="#fff"/><path d="M103.876 38.452c-1.056-.088-1.584.368-1.584 1.368V40h1.584v1.008h-1.584V46h-1.044v-4.992h-.96V40h.96v-.18c0-.808.224-1.42.672-1.836.456-.416 1.108-.596 1.956-.54v1.008zM109.311 40h1.044v6h-1.044v-1.032c-.52.792-1.276 1.188-2.268 1.188-.84 0-1.556-.304-2.148-.912-.592-.616-.888-1.364-.888-2.244 0-.88.296-1.624.888-2.232.592-.616 1.308-.924 2.148-.924.992 0 1.748.396 2.268 1.188V40zm-2.136 5.148c.608 0 1.116-.204 1.524-.612.408-.416.612-.928.612-1.536s-.204-1.116-.612-1.524c-.408-.416-.916-.624-1.524-.624-.6 0-1.104.208-1.512.624-.408.408-.612.916-.612 1.524s.204 1.12.612 1.536c.408.408.912.612 1.512.612zm5.65-3.528c0 .232.116.42.348.564.232.136.512.248.84.336.328.08.656.176.984.288.328.104.608.288.84.552.232.256.348.588.348.996 0 .544-.212.98-.636 1.308-.416.328-.952.492-1.608.492-.584 0-1.084-.128-1.5-.384a2.147 2.147 0 01-.888-1.02l.9-.516c.096.288.276.516.54.684.264.168.58.252.948.252.344 0 .628-.064.852-.192.224-.136.336-.344.336-.624 0-.232-.116-.416-.348-.552a2.88 2.88 0 00-.84-.336 15.37 15.37 0 01-.984-.3 1.978 1.978 0 01-.84-.552c-.232-.256-.348-.584-.348-.984 0-.52.2-.948.6-1.284.408-.336.916-.504 1.524-.504.488 0 .92.112 1.296.336.384.216.672.52.864.912l-.876.492c-.216-.512-.644-.768-1.284-.768-.296 0-.548.072-.756.216a.66.66 0 00-.312.588zm7.626-.612h-1.596v3.252c0 .296.056.508.168.636.12.12.3.184.54.192.24 0 .536-.008.888-.024V46c-.912.12-1.58.048-2.004-.216-.424-.272-.636-.78-.636-1.524v-3.252h-1.188V40h1.188v-1.368l1.044-.312V40h1.596v1.008zm5.171.612c0 .232.116.42.348.564.232.136.512.248.84.336.328.08.656.176.984.288.328.104.608.288.84.552.232.256.348.588.348.996 0 .544-.212.98-.636 1.308-.416.328-.952.492-1.608.492-.584 0-1.084-.128-1.5-.384a2.147 2.147 0 01-.888-1.02l.9-.516c.096.288.276.516.54.684.264.168.58.252.948.252.344 0 .628-.064.852-.192.224-.136.336-.344.336-.624 0-.232-.116-.416-.348-.552a2.88 2.88 0 00-.84-.336 15.37 15.37 0 01-.984-.3 1.978 1.978 0 01-.84-.552c-.232-.256-.348-.584-.348-.984 0-.52.2-.948.6-1.284.408-.336.916-.504 1.524-.504.488 0 .92.112 1.296.336.384.216.672.52.864.912l-.876.492c-.216-.512-.644-.768-1.284-.768-.296 0-.548.072-.756.216a.66.66 0 00-.312.588zm5.164 1.86c.104.536.348.952.732 1.248.392.296.872.444 1.44.444.792 0 1.368-.292 1.728-.876l.888.504c-.584.904-1.464 1.356-2.64 1.356-.952 0-1.728-.296-2.328-.888-.592-.6-.888-1.356-.888-2.268 0-.904.292-1.656.876-2.256.584-.6 1.34-.9 2.268-.9.88 0 1.596.312 2.148.936.56.616.84 1.36.84 2.232 0 .152-.012.308-.036.468h-5.028zm2.076-2.652c-.56 0-1.024.16-1.392.48-.368.312-.596.732-.684 1.26h4.008c-.088-.568-.312-1-.672-1.296a1.924 1.924 0 00-1.26-.444zM137.05 46v-8.76h1.044V46h-1.044zm2.637 0v-8.76h1.044V46h-1.044zm6.536-4.38c0 .232.116.42.348.564.232.136.512.248.84.336.328.08.656.176.984.288.328.104.608.288.84.552.232.256.348.588.348.996 0 .544-.212.98-.636 1.308-.416.328-.952.492-1.608.492-.584 0-1.084-.128-1.5-.384a2.147 2.147 0 01-.888-1.02l.9-.516c.096.288.276.516.54.684.264.168.58.252.948.252.344 0 .628-.064.852-.192.224-.136.336-.344.336-.624 0-.232-.116-.416-.348-.552a2.88 2.88 0 00-.84-.336 15.37 15.37 0 01-.984-.3 1.978 1.978 0 01-.84-.552c-.232-.256-.348-.584-.348-.984 0-.52.2-.948.6-1.284.408-.336.916-.504 1.524-.504.488 0 .92.112 1.296.336.384.216.672.52.864.912l-.876.492c-.216-.512-.644-.768-1.284-.768-.296 0-.548.072-.756.216a.66.66 0 00-.312.588zm5.164 1.86c.104.536.348.952.732 1.248.392.296.872.444 1.44.444.792 0 1.368-.292 1.728-.876l.888.504c-.584.904-1.464 1.356-2.64 1.356-.952 0-1.728-.296-2.328-.888-.592-.6-.888-1.356-.888-2.268 0-.904.292-1.656.876-2.256.584-.6 1.34-.9 2.268-.9.88 0 1.596.312 2.148.936.56.616.84 1.36.84 2.232 0 .152-.012.308-.036.468h-5.028zm2.076-2.652c-.56 0-1.024.16-1.392.48-.368.312-.596.732-.684 1.26h4.008c-.088-.568-.312-1-.672-1.296a1.924 1.924 0 00-1.26-.444zm5.232.18c.344-.744.968-1.116 1.872-1.116v1.092c-.512-.024-.952.112-1.32.408-.368.296-.552.772-.552 1.428V46h-1.044v-6h1.044v1.008zM165.789 40h1.128l-2.4 6h-1.224l-2.4-6h1.128l1.884 4.884L165.789 40zm2.539-1.092a.685.685 0 01-.504-.204.67.67 0 01-.204-.492.67.67 0 01.204-.492.666.666 0 01.504-.216c.192 0 .356.072.492.216a.67.67 0 01.204.492.67.67 0 01-.204.492.67.67 0 01-.492.204zM167.8 46v-6h1.044v6H167.8zm5.457.156c-.904 0-1.656-.3-2.256-.9-.6-.608-.9-1.36-.9-2.256 0-.896.3-1.644.9-2.244.6-.608 1.352-.912 2.256-.912.592 0 1.124.144 1.596.432.472.28.824.66 1.056 1.14l-.876.504a1.769 1.769 0 00-.708-.768 1.996 1.996 0 00-1.068-.288c-.6 0-1.104.204-1.512.612-.4.408-.6.916-.6 1.524 0 .6.2 1.104.6 1.512.408.408.912.612 1.512.612.4 0 .76-.092 1.08-.276.32-.192.564-.448.732-.768l.888.516a2.96 2.96 0 01-1.104 1.14 3.11 3.11 0 01-1.596.42zm4.38-2.676c.104.536.348.952.732 1.248.392.296.872.444 1.44.444.792 0 1.368-.292 1.728-.876l.888.504c-.584.904-1.464 1.356-2.64 1.356-.952 0-1.728-.296-2.328-.888-.592-.6-.888-1.356-.888-2.268 0-.904.292-1.656.876-2.256.584-.6 1.34-.9 2.268-.9.88 0 1.596.312 2.148.936.56.616.84 1.36.84 2.232 0 .152-.012.308-.036.468h-5.028zm2.076-2.652c-.56 0-1.024.16-1.392.48-.368.312-.596.732-.684 1.26h4.008c-.088-.568-.312-1-.672-1.296a1.924 1.924 0 00-1.26-.444z" fill="#747678"/></svg>