<svg width="203" height="38" viewBox="0 0 203 38" fill="none" xmlns="http://www.w3.org/2000/svg"><path d="M.575 16.6l2.9-2.2c.533.7 1.083 1.233 1.65 1.6.567.35 1.242.525 2.025.525 1.133 0 1.7-.4 1.7-1.2 0-.35-.108-.617-.325-.8-.217-.183-.667-.425-1.35-.725l-1.7-.75C2.692 11.817 1.3 10.158 1.3 8.075c0-1.45.533-2.625 1.6-3.525 1.083-.9 2.475-1.35 4.175-1.35 2.667 0 4.55 1.108 5.65 3.325l-2.875 2.2C9.433 8.108 9.017 7.667 8.6 7.4c-.417-.283-.908-.425-1.475-.425-.983 0-1.475.35-1.475 1.05 0 .3.1.55.3.75.217.183.592.383 1.125.6l1.9.8c1.467.617 2.533 1.317 3.2 2.1.683.767 1.025 1.725 1.025 2.875 0 1.567-.575 2.817-1.725 3.75-1.133.933-2.575 1.4-4.325 1.4-1.467 0-2.783-.325-3.95-.975A6.661 6.661 0 01.575 16.6zm14.664-2.925v-3.6h22.5v3.6h-22.5zM43.19 20V7.375h-4.95V3.5h14.2v3.875h-4.95V20h-4.3zm11.147 0V3.5h11.45v3.875h-7.15V9.65h5.1v3.6h-5.1v2.875h7.45V20h-11.75zm13.212-8.25c-.033-2.367.833-4.392 2.6-6.075 1.767-1.7 3.875-2.525 6.325-2.475 1.65 0 3.133.392 4.45 1.175 1.317.767 2.35 1.85 3.1 3.25L80.748 9.85c-1.067-1.8-2.5-2.7-4.3-2.7-1.317 0-2.4.425-3.25 1.275-.833.85-1.25 1.967-1.25 3.35 0 1.35.417 2.458 1.25 3.325.867.833 1.95 1.25 3.25 1.25 1.8 0 3.233-.9 4.3-2.7l3.275 2.225c-.75 1.4-1.783 2.492-3.1 3.275-1.317.767-2.808 1.15-4.475 1.15-2.433.033-4.542-.792-6.325-2.475-1.767-1.683-2.625-3.708-2.575-6.075zM86.464 20V3.5h4.3v6.025h6.026V3.5h4.299V20h-4.3v-6.6h-6.025V20h-4.3zM114.71 3.5h4.3v16.8h-1.375l-8.95-8.675V20h-4.3V3.2h1.375l8.95 8.55V3.5zm6.745 8.25c-.05-2.35.809-4.375 2.575-6.075 1.784-1.7 3.884-2.525 6.3-2.475 2.417-.05 4.517.775 6.3 2.475 1.8 1.7 2.675 3.725 2.625 6.075.05 2.367-.825 4.392-2.625 6.075-1.783 1.683-3.883 2.508-6.3 2.475-2.433.033-4.533-.792-6.3-2.475-1.766-1.683-2.625-3.708-2.575-6.075zm13.4 0c0-1.35-.433-2.45-1.3-3.3-.85-.867-1.916-1.3-3.2-1.3-1.333 0-2.416.425-3.25 1.275-.833.85-1.25 1.958-1.25 3.325 0 1.367.417 2.483 1.25 3.35.834.833 1.917 1.25 3.25 1.25 1.3 0 2.375-.425 3.225-1.275.85-.85 1.275-1.958 1.275-3.325zm6.859 8.25V3.5h4.3v12.625h6.825V20h-11.125zm12.163-8.25c-.05-2.35.809-4.375 2.575-6.075 1.784-1.7 3.884-2.525 6.3-2.475 2.417-.05 4.517.775 6.3 2.475 1.8 1.7 2.675 3.725 2.625 6.075.05 2.367-.825 4.392-2.625 6.075-1.783 1.683-3.883 2.508-6.3 2.475-2.433.033-4.533-.792-6.3-2.475-1.766-1.683-2.625-3.708-2.575-6.075zm13.4 0c0-1.35-.433-2.45-1.3-3.3-.85-.867-1.916-1.3-3.2-1.3-1.333 0-2.416.425-3.25 1.275-.833.85-1.25 1.958-1.25 3.325 0 1.367.417 2.483 1.25 3.35.834.833 1.917 1.25 3.25 1.25 1.3 0 2.375-.425 3.225-1.275.85-.85 1.275-1.958 1.275-3.325zm6.009 0c-.033-2.367.834-4.392 2.6-6.075 1.767-1.683 3.892-2.508 6.375-2.475 3.084 0 5.45 1.225 7.1 3.675l-3 2.55c-1.083-1.517-2.475-2.275-4.175-2.275-1.383 0-2.483.417-3.3 1.25-.8.833-1.2 1.95-1.2 3.35 0 1.417.425 2.558 1.275 3.425.867.867 2.025 1.3 3.475 1.3 1.567 0 2.775-.492 3.625-1.475v-.775h-3.85v-3.7h8.15v5.2c-.766 1.367-1.866 2.475-3.3 3.325-1.433.833-3.033 1.25-4.8 1.25-2.483.033-4.608-.783-6.375-2.45-1.766-1.683-2.633-3.717-2.6-6.1zM192.812 20V3.5h4.3V20h-4.3zM.344 33.36c-.016-.752.253-1.397.808-1.936.555-.539 1.21-.803 1.968-.792.48 0 .92.11 1.32.328.4.219.715.515.944.888l-.64.472c-.39-.608-.928-.912-1.616-.912-.544 0-.997.187-1.36.56-.363.368-.544.832-.544 1.392 0 .56.181 1.027.544 1.4.363.368.816.552 1.36.552.688 0 1.227-.304 1.616-.912l.64.472c-.23.379-.544.677-.944.896-.395.213-.835.32-1.32.32-.757.01-1.413-.253-1.968-.792-.555-.539-.824-1.184-.808-1.936zM9.038 36v-4.52H7.262v-.76h4.408v.76H9.886V36h-.848zm4.824 0v-5.28h1.928c.534 0 .966.152 1.296.456.331.299.496.685.496 1.16 0 .475-.168.864-.504 1.168-.33.304-.76.456-1.288.456h-1.08V36h-.848zm.848-2.792h1.064c.294 0 .523-.077.688-.232.166-.155.248-.365.248-.632s-.082-.477-.248-.632c-.165-.16-.394-.24-.688-.24H14.71v1.736zm4.896.152c-.01-.752.26-1.397.808-1.936a2.646 2.646 0 011.96-.792c.753-.01 1.406.253 1.96.792.56.539.832 1.184.817 1.936.015.752-.256 1.397-.817 1.936-.554.539-1.207.803-1.96.792a2.671 2.671 0 01-1.967-.792c-.55-.539-.817-1.184-.8-1.936zm4.672-.008c0-.555-.18-1.016-.543-1.384a1.809 1.809 0 00-1.352-.56c-.544 0-.998.184-1.36.552-.358.368-.537.832-.537 1.392 0 .565.18 1.035.537 1.408.357.368.81.552 1.36.552.538 0 .989-.187 1.352-.56.362-.373.544-.84.544-1.4zm7.41-2.72h.297V36h-.848v-3.688l-3.272 3.776h-.296V30.72h.848v3.68l3.272-3.768zM35.952 36v-4.52h-1.776v-.76h4.408v.76H36.8V36h-.848zm4.824 0v-5.28h3.472v.76h-2.624v1.352H43.6v.736h-1.976v1.672h2.72V36h-3.568zm6.539-5.28h3.448V36h-.848v-4.52h-1.792c-.038 1.19-.118 2.112-.24 2.768-.118.65-.288 1.115-.512 1.392-.224.272-.531.413-.92.424a.995.995 0 01-.384-.064v-.728c.032.01.106.016.224.016.352 0 .602-.293.752-.88.149-.592.237-1.533.264-2.824l.008-.864zM53.489 36v-5.28h.848v1.952h1.064c.544 0 .987.155 1.328.464.347.31.52.71.52 1.2s-.17.89-.512 1.2c-.341.31-.787.464-1.336.464h-1.912zm.848-.752h1.056c.304 0 .544-.083.72-.248.176-.165.264-.387.264-.664s-.088-.499-.264-.664c-.176-.165-.416-.248-.72-.248h-1.056v1.824zm5.325.752v-5.28h.848v2.104h2.656V30.72h.848V36h-.848v-2.416H60.51V36h-.848zm6.768-2.64c-.01-.752.259-1.397.808-1.936a2.647 2.647 0 011.96-.792c.752-.01 1.405.253 1.96.792.56.539.832 1.184.816 1.936.016.752-.256 1.397-.816 1.936-.555.539-1.208.803-1.96.792-.757.01-1.413-.253-1.968-.792-.55-.539-.816-1.184-.8-1.936zm4.672-.008c0-.555-.181-1.016-.544-1.384a1.809 1.809 0 00-1.352-.56c-.544 0-.997.184-1.36.552-.357.368-.536.832-.536 1.392 0 .565.179 1.035.536 1.408.357.368.81.552 1.36.552.539 0 .99-.187 1.352-.56.363-.373.544-.84.544-1.4zM78.034 36v-5.28h1.928c.534 0 .966.152 1.296.456.331.299.496.685.496 1.16 0 .475-.168.864-.504 1.168-.33.304-.76.456-1.288.456h-1.08V36h-.848zm.848-2.792h1.064c.294 0 .523-.077.688-.232.166-.155.248-.365.248-.632s-.082-.477-.248-.632c-.165-.16-.394-.24-.688-.24h-1.064v1.736zM84.098 36v-5.28h3.472v.76h-2.624v1.352h1.976v.736h-1.976v1.672h2.72V36h-3.568zm10.683-5.368h.288V36h-.848v-3.312l-1.512 1.984h-.288l-1.52-1.992V36h-.848v-5.368h.296l2.216 2.952 2.216-2.952zm2.696 2.728c-.01-.752.258-1.397.808-1.936a2.647 2.647 0 011.96-.792c.752-.01 1.405.253 1.96.792.56.539.832 1.184.816 1.936.016.752-.256 1.397-.816 1.936-.555.539-1.208.803-1.96.792-.758.01-1.413-.253-1.968-.792-.55-.539-.816-1.184-.8-1.936zm4.672-.008c0-.555-.182-1.016-.544-1.384a1.81 1.81 0 00-1.352-.56c-.544 0-.998.184-1.36.552-.358.368-.536.832-.536 1.392 0 .565.178 1.035.536 1.408.357.368.81.552 1.36.552a1.81 1.81 0 001.352-.56c.362-.373.544-.84.544-1.4zm3.29 2.648v-5.28h.848v2.104h2.656V30.72h.848V36h-.848v-2.416h-2.656V36h-.848zm8.328 0v-4.52h-1.776v-.76h4.408v.76h-1.784V36h-.848zm4.824 0v-5.28h.848v2.104h2.656V30.72h.848V36h-.848v-2.416h-2.656V36h-.848zm10.631 0l-.376-.88h-2.376l-.376.88h-.904l2.328-5.368h.288L130.134 36h-.912zm-.68-1.608l-.88-2.184-.888 2.184h1.768zm5.697-3.672h1.808V36h-.848v-1.904h-.872L132.967 36h-.928l1.44-2.032a1.782 1.782 0 01-.848-.608 1.557 1.557 0 01-.312-.96c0-.496.176-.899.528-1.208.357-.315.821-.472 1.392-.472zm.96 2.616v-1.864h-.976c-.315 0-.565.085-.752.256-.187.17-.28.397-.28.68 0 .283.093.51.28.68.192.165.443.248.752.248h.976zM142.425 36v-5.28h.848V36h-.848zm1.936-2.808L146.793 36h-1.048l-2.448-2.808 2.216-2.472h1.04l-2.192 2.472zm3.956.168c-.01-.752.259-1.397.808-1.936.55-.539 1.203-.803 1.96-.792.752-.01 1.406.253 1.96.792.56.539.832 1.184.816 1.936.016.752-.256 1.397-.816 1.936-.554.539-1.208.803-1.96.792-.757.01-1.413-.253-1.968-.792-.549-.539-.816-1.184-.8-1.936zm4.672-.008c0-.555-.181-1.016-.544-1.384a1.807 1.807 0 00-1.352-.56c-.544 0-.997.184-1.36.552-.357.368-.536.832-.536 1.392 0 .565.179 1.035.536 1.408.358.368.811.552 1.36.552.539 0 .99-.187 1.352-.56.363-.373.544-.84.544-1.4zm8.019-2.72h.288V36h-.848v-3.312l-1.512 1.984h-.288l-1.52-1.992V36h-.848v-5.368h.296l2.216 2.952 2.216-2.952zM164.023 36v-5.28h4.272V36h-.848v-4.52h-2.576V36h-.848zm10.554 0l-.376-.88h-2.376l-.376.88h-.904l2.328-5.368h.288L175.489 36h-.912zm-.68-1.608l-.88-2.184-.888 2.184h1.768zM177.73 36v-5.28h.848v2.104h2.656V30.72h.848V36h-.848v-2.416h-2.656V36h-.848zm11.207-5.368h.296V36h-.848v-3.688l-3.272 3.776h-.296V30.72h.848v3.68l3.272-3.768zm4.886.088h1.808V36h-.848v-1.904h-.872L192.551 36h-.928l1.44-2.032a1.782 1.782 0 01-.848-.608 1.557 1.557 0 01-.312-.96c0-.496.176-.899.528-1.208.358-.315.822-.472 1.392-.472zm.96 2.616v-1.864h-.976c-.314 0-.565.085-.752.256-.186.17-.28.397-.28.68 0 .283.094.51.28.68.192.165.443.248.752.248h.976z" fill="#fff"/></svg>