<svg width="176" height="60" viewBox="0 0 176 60" fill="none" xmlns="http://www.w3.org/2000/svg"><path d="M27.724 26.107h2.162v11.83l9.067-11.83h2.022V41.42h-2.162V29.63l-9.068 11.79h-2.021V26.107zm37.111 0V41.42h-2.142V28.01h-8.887v13.41h-2.182V26.107h13.211zm14.192 11.49H70.88L69.2 41.42h-2.262l6.946-15.313h2.162L83.01 41.42h-2.302l-1.682-3.823zm-.76-1.741l-3.323-7.507-3.303 7.507h6.626zm12.83-9.749c1.982 0 3.544.48 4.684 1.422 1.141.94 1.702 2.262 1.702 3.923s-.56 2.962-1.702 3.923c-1.14.941-2.702 1.422-4.684 1.422h-3.783v4.623h-2.202V26.107h5.986zm-.06 8.768c1.382 0 2.442-.28 3.163-.88.74-.581 1.101-1.442 1.101-2.543 0-1.121-.36-1.962-1.1-2.562-.721-.58-1.782-.881-3.164-.881h-3.723v6.866h3.723zm18.997-6.866h-5.245V41.42h-2.142V28.01h-5.244v-1.902h12.631v1.902zm15.313-1.902V41.42h-2.182v-6.825h-8.808v6.825h-2.182V26.107h2.182v6.586h8.808v-6.586h2.182zM140.7 39.52v1.901h-11.11V26.107h10.809v1.902h-8.627v4.704h7.687v1.862h-7.687v4.944h8.928zm8.887-13.412c1.982 0 3.543.48 4.684 1.422 1.141.94 1.702 2.262 1.702 3.923s-.561 2.962-1.702 3.923c-1.141.941-2.702 1.422-4.684 1.422h-3.783v4.623h-2.202V26.107h5.985zm-.08 8.768c1.401 0 2.462-.28 3.183-.88.72-.581 1.101-1.442 1.101-2.543 0-1.121-.381-1.962-1.101-2.562-.721-.58-1.782-.881-3.183-.881h-3.703v6.866h3.703zm15.693-3.423c1.822 0 3.223.4 4.184 1.221.981.82 1.461 2.022 1.461 3.603 0 1.681-.52 2.963-1.561 3.843-1.041.881-2.542 1.301-4.484 1.301h-6.325V26.107h2.162v5.345h4.563zm-.48 8.247c1.261 0 2.242-.28 2.923-.86.68-.581 1.02-1.422 1.02-2.503 0-2.102-1.321-3.163-3.943-3.163h-4.083V39.7h4.083zm8.567-13.592h2.162V41.42h-2.162V26.107z" fill="#000"/><path d="M31.247 48.254c1.06 0 1.881.26 2.462.8.58.541.86 1.322.86 2.383v5.084h-1.06V55.24c-.26.42-.621.76-1.101 1s-1.061.361-1.722.361c-.92 0-1.641-.22-2.182-.66-.54-.44-.82-1.021-.82-1.742 0-.68.26-1.241.76-1.681.5-.42 1.301-.641 2.402-.641h2.603v-.5c0-.701-.18-1.242-.581-1.602-.4-.38-.98-.56-1.742-.56-.52 0-1.02.08-1.5.26-.461.16-.882.4-1.222.7l-.5-.82c.42-.36.92-.62 1.501-.82.58-.201 1.201-.281 1.842-.281zm-.4 7.466c.62 0 1.16-.14 1.62-.42.441-.3.781-.7.982-1.241v-1.341h-2.563c-1.4 0-2.101.48-2.101 1.46 0 .481.18.862.54 1.122.36.28.88.42 1.521.42zm14.692-.18v2.963h-1.061V56.52h-7.346v1.982H36.09V55.54h.46c.56-.02.92-.42 1.121-1.2.2-.782.34-1.883.42-3.284l.1-2.742h6.066v7.226h1.28zm-6.446-4.424c-.04 1.161-.14 2.122-.28 2.883-.16.76-.42 1.26-.78 1.541h5.104v-6.245h-3.944l-.1 1.821zm13.832 1.161c1.101.26 1.662.921 1.662 2.002 0 .72-.26 1.281-.801 1.661-.52.38-1.321.58-2.362.58H47.7v-8.206h3.603c.94 0 1.681.18 2.201.54.541.36.801.881.801 1.562 0 .44-.12.82-.36 1.14-.24.321-.58.561-1.02.721zm-4.163-.32h2.482c.62 0 1.12-.12 1.44-.36.341-.24.521-.58.521-1.041 0-.46-.18-.8-.52-1.021-.32-.24-.82-.36-1.441-.36H48.76v2.782zm2.622 3.683c.7 0 1.22-.12 1.581-.34.36-.22.54-.58.54-1.081 0-.48-.18-.84-.5-1.08-.32-.241-.82-.361-1.521-.361H48.76v2.862h2.623zm9.188.961a4.31 4.31 0 01-2.142-.54 4.159 4.159 0 01-1.502-1.502c-.36-.62-.54-1.34-.54-2.142 0-.8.18-1.52.54-2.161.38-.64.881-1.121 1.502-1.482.64-.36 1.36-.52 2.142-.52.8 0 1.5.16 2.141.52.64.36 1.121.841 1.482 1.482.36.64.54 1.36.54 2.161 0 .801-.18 1.522-.54 2.142a3.822 3.822 0 01-1.482 1.502c-.64.36-1.34.54-2.141.54zm0-.98c.58 0 1.1-.14 1.56-.401.481-.28.842-.64 1.102-1.141.26-.48.38-1.041.38-1.662 0-.62-.12-1.18-.38-1.681a2.7 2.7 0 00-1.101-1.12c-.46-.261-.981-.401-1.561-.401s-1.101.14-1.562.4c-.46.26-.84.64-1.1 1.121-.26.5-.401 1.06-.401 1.681s.14 1.181.4 1.662c.26.5.64.86 1.101 1.14.46.261.981.401 1.562.401zm9.528-2.763h-1.862v3.663h-1.12v-8.207h1.12v3.603h1.882l2.882-3.603h1.201l-3.223 3.983 3.463 4.224h-1.32L70.1 52.858zm8.767-4.604c1.061 0 1.882.26 2.462.8.58.541.86 1.322.86 2.383v5.084h-1.06V55.24c-.26.42-.62.76-1.1 1-.481.24-1.062.361-1.722.361-.921 0-1.642-.22-2.182-.66-.54-.44-.82-1.021-.82-1.742 0-.68.26-1.241.76-1.681.5-.42 1.3-.641 2.402-.641h2.622v-.5c0-.701-.2-1.242-.6-1.602-.4-.38-.981-.56-1.742-.56-.52 0-1 .08-1.481.26-.48.16-.901.4-1.241.7l-.5-.82c.42-.36.92-.62 1.5-.82.581-.201 1.202-.281 1.842-.281zm-.4 7.466c.64 0 1.16-.14 1.621-.42.44-.3.78-.7 1.001-1.241v-1.341h-2.582c-1.401 0-2.102.48-2.102 1.46 0 .481.18.862.54 1.122.36.28.881.42 1.522.42zm12.45-6.425h-3.102v7.226h-1.101v-7.226H83.61v-.981h7.306v.98zm4.684 7.306c-.82 0-1.541-.18-2.181-.54a3.688 3.688 0 01-1.502-1.482 4.346 4.346 0 01-.56-2.162c0-.8.2-1.52.56-2.161a3.82 3.82 0 011.501-1.482c.641-.36 1.362-.52 2.182-.52.7 0 1.341.12 1.882.4.56.28 1 .68 1.321 1.221l-.82.56c-.28-.42-.621-.72-1.021-.92-.42-.2-.881-.3-1.362-.3-.6 0-1.14.14-1.601.4-.48.26-.84.64-1.121 1.121-.26.5-.38 1.06-.38 1.681s.12 1.181.38 1.682c.28.48.64.84 1.121 1.12.46.261 1 .401 1.601.401.48 0 .941-.1 1.362-.3.4-.2.74-.5 1.02-.9l.821.56c-.32.52-.76.92-1.321 1.2-.56.28-1.181.421-1.882.421zm8.327-3.743h-1.861v3.663h-1.101v-8.207h1.101v3.603h1.881l2.883-3.603h1.201l-3.223 3.983 3.463 4.224h-1.301l-3.043-3.663zm9.188 3.743c-.78 0-1.501-.18-2.142-.54a3.953 3.953 0 01-1.481-1.502c-.38-.62-.56-1.34-.56-2.142 0-.8.18-1.52.56-2.161a3.9 3.9 0 011.481-1.482c.641-.36 1.362-.52 2.142-.52.801 0 1.502.16 2.142.52a3.81 3.81 0 011.501 1.482c.341.64.521 1.36.521 2.161 0 .801-.18 1.522-.521 2.142a3.86 3.86 0 01-1.501 1.502c-.64.36-1.341.54-2.142.54zm0-.98a3.25 3.25 0 001.582-.401c.46-.28.82-.64 1.08-1.141.261-.48.381-1.041.381-1.662 0-.62-.12-1.18-.381-1.681-.26-.48-.62-.86-1.08-1.12a3.257 3.257 0 00-1.582-.401c-.58 0-1.101.14-1.561.4-.46.26-.821.64-1.101 1.121-.26.5-.4 1.06-.4 1.681s.14 1.181.4 1.662c.28.5.641.86 1.101 1.14.46.261.981.401 1.561.401zm13.732-2.863h-6.866c.06.86.38 1.541.981 2.061.6.52 1.341.801 2.242.801.52 0 .981-.1 1.401-.28.44-.18.801-.46 1.121-.8l.62.72c-.36.42-.82.76-1.361 1-.54.22-1.161.341-1.801.341-.841 0-1.602-.18-2.242-.54a3.782 3.782 0 01-1.521-1.502c-.361-.62-.541-1.34-.541-2.142 0-.8.16-1.52.521-2.161.34-.64.82-1.121 1.421-1.482.62-.36 1.301-.52 2.062-.52.76 0 1.441.16 2.041.52.601.36 1.081.841 1.421 1.482.341.62.521 1.34.521 2.161l-.02.34zm-3.963-3.563c-.801 0-1.462.26-1.982.76-.541.5-.841 1.161-.921 1.982h5.825c-.08-.82-.38-1.481-.921-1.982-.54-.5-1.201-.76-2.001-.76zm14.492-.68c.76 0 1.441.16 2.042.5.6.34 1.06.82 1.401 1.42.32.621.5 1.302.5 2.082 0 .801-.18 1.522-.52 2.142a3.763 3.763 0 01-1.461 1.442c-.641.34-1.342.5-2.162.5-1.361 0-2.422-.46-3.163-1.421-.761-.961-1.121-2.282-1.121-3.964 0-1.761.32-3.102 1.001-4.043.66-.94 1.721-1.581 3.143-1.902l3.683-.84.18 1-3.463.801c-1.161.26-2.042.72-2.582 1.381-.561.66-.861 1.642-.901 2.923.32-.64.781-1.121 1.381-1.481.601-.36 1.281-.54 2.042-.54zm-.16 7.165c.56 0 1.081-.12 1.521-.38.46-.28.821-.64 1.061-1.121.26-.48.4-1.02.4-1.621 0-.6-.14-1.141-.38-1.602-.26-.46-.601-.8-1.061-1.06-.44-.26-.961-.381-1.541-.381-.581 0-1.101.12-1.562.38-.46.26-.8.6-1.061 1.061-.26.46-.38 1.001-.38 1.602 0 .6.12 1.14.38 1.62.261.481.621.842 1.061 1.122.461.26.981.38 1.562.38zm13.531-7.426c.761 0 1.461.16 2.082.52a3.84 3.84 0 011.461 1.482c.361.64.521 1.36.521 2.161 0 .801-.16 1.522-.521 2.142-.36.64-.84 1.141-1.461 1.502a4.09 4.09 0 01-2.082.54c-.72 0-1.381-.16-1.981-.48a3.822 3.822 0 01-1.442-1.322c-.38-.56-.58-1.2-.66-1.941h-1.862v3.663h-1.101v-8.207h1.101v3.543h1.882c.08-.72.32-1.341.68-1.882.381-.56.841-.98 1.442-1.28.58-.301 1.221-.441 1.941-.441zm0 7.366c.561 0 1.061-.12 1.522-.4.46-.26.8-.64 1.06-1.141.261-.48.401-1.041.401-1.662 0-.62-.14-1.18-.401-1.681-.26-.48-.6-.86-1.06-1.12a3.03 3.03 0 00-1.522-.401c-.56 0-1.061.14-1.521.4-.46.26-.801.64-1.061 1.121-.26.5-.4 1.06-.4 1.681s.14 1.181.4 1.662c.26.5.601.88 1.061 1.14.46.281.961.401 1.521.401zm10.689-7.366c.761 0 1.462.16 2.082.52a3.66 3.66 0 011.461 1.462c.361.64.541 1.36.541 2.181s-.18 1.542-.541 2.182c-.34.64-.84 1.121-1.441 1.482-.62.34-1.321.52-2.102.52-.68 0-1.281-.14-1.801-.42a3.453 3.453 0 01-1.321-1.201v4.564h-1.121v-11.23h1.061v1.621c.34-.54.78-.96 1.321-1.26.56-.281 1.161-.421 1.861-.421zm-.08 7.366a3.24 3.24 0 001.562-.4c.46-.28.82-.64 1.101-1.141.26-.48.4-1.041.4-1.662 0-.62-.14-1.18-.4-1.661a3.179 3.179 0 00-1.101-1.14 3.237 3.237 0 00-1.562-.401c-.58 0-1.101.14-1.581.4-.461.28-.821.66-1.081 1.141-.26.48-.4 1.04-.4 1.661s.14 1.181.4 1.662c.26.5.62.86 1.081 1.14.48.261 1.001.401 1.581.401zm9.949.981c-.801 0-1.502-.18-2.142-.54a3.86 3.86 0 01-1.501-1.502c-.361-.62-.541-1.34-.541-2.142 0-.8.18-1.52.541-2.161a3.82 3.82 0 011.501-1.482c.64-.36 1.341-.52 2.142-.52.78 0 1.501.16 2.142.52.62.36 1.12.841 1.481 1.482.36.64.54 1.36.54 2.161 0 .801-.18 1.522-.54 2.142a3.96 3.96 0 01-1.481 1.502c-.641.36-1.362.54-2.142.54zm0-.98c.58 0 1.101-.14 1.561-.401.46-.28.821-.64 1.081-1.141.26-.48.4-1.041.4-1.662 0-.62-.14-1.18-.4-1.681-.26-.48-.621-.86-1.081-1.12a3.115 3.115 0 00-1.561-.401 3.26 3.26 0 00-1.582.4c-.46.26-.82.64-1.081 1.121-.26.5-.4 1.06-.4 1.681s.14 1.181.4 1.662c.261.5.621.86 1.081 1.14a3.25 3.25 0 001.582.401z" fill="#383737"/><path d="M20.818 33.348c-.28-.04-.54-.08-.801-.1-5.685-.66-10.089-2.282-13.211-4.844-3.143-2.583-4.704-6.026-4.704-10.37 0-4.603 1.781-8.246 5.344-10.949 3.583-2.702 7.987-4.043 13.272-4.043h.1v7.607c-.14-.02-.28-.02-.4-.02-2.943 0-5.325.64-7.167 1.901-1.821 1.281-2.742 3.003-2.742 5.205 0 4.103 3.423 6.705 10.309 7.806v7.807zm0 24.28c-5.585-.24-10.209-1.941-13.872-5.064C2.983 49.161.66 44.677 0 39.153l8.407-1.602c.8 3.924 2.242 6.926 4.344 9.008 1.902 1.862 4.584 2.882 8.067 3.063v8.006z" fill="#358482"/><path d="M35.809 19.577c-1.541 0-2.922-.34-4.163-1.021a7.656 7.656 0 01-2.903-2.803c-.68-1.2-1.04-2.522-1.04-4.023 0-1.481.36-2.822 1.04-4.023a7.57 7.57 0 012.923-2.803c1.24-.66 2.622-1 4.163-1 1.201 0 2.282.2 3.283.6.98.4 1.841.98 2.542 1.781l-1.421 1.382c-1.161-1.222-2.602-1.822-4.324-1.822-1.14 0-2.162.26-3.082.76a5.645 5.645 0 00-2.162 2.122c-.52.901-.781 1.902-.781 3.003 0 1.12.26 2.122.78 3.022a5.594 5.594 0 002.163 2.102c.92.52 1.941.761 3.082.761 1.702 0 3.143-.6 4.324-1.842l1.421 1.382a6.63 6.63 0 01-2.562 1.801 8.8 8.8 0 01-3.283.62zm18.816-4.004h-8.147l-1.681 3.823h-2.262L49.48 4.063h2.161l6.966 15.334h-2.301l-1.682-3.824zm-.76-1.761l-3.303-7.507-3.303 7.507h6.605zm7.406-9.749h2.161v11.83L72.5 4.063h2.002v15.334H72.36V7.586l-9.088 11.81h-2.001V4.063zm6.585-1.06c-1.2 0-2.121-.26-2.782-.781-.64-.52-.98-1.261-.98-2.222h1.54c.02.56.22 1 .6 1.321.401.32.922.48 1.622.48.64 0 1.181-.16 1.582-.48.4-.32.6-.76.62-1.321H71.6c-.02.94-.36 1.681-1 2.202-.661.54-1.562.8-2.743.8zm21.439 2.982h-7.867l.02 13.412h-2.162V4.063h10.049l-.04 1.922zm9.688 9.588h-8.147l-1.682 3.823h-2.261l6.945-15.333H96l6.966 15.334h-2.302l-1.681-3.824zm-.76-1.761l-3.324-7.507-3.302 7.507h6.625zM118.8 4.063v15.334h-2.202V12.57h-8.788v6.825h-2.202V4.063h2.202v6.606h8.788V4.063h2.202zm11.649 15.514c-1.541 0-2.922-.34-4.163-1.021a7.48 7.48 0 01-2.923-2.823c-.72-1.2-1.08-2.522-1.08-4.003 0-1.461.36-2.802 1.08-4.003.701-1.201 1.682-2.142 2.923-2.823 1.241-.66 2.622-1 4.163-1 1.542 0 2.923.34 4.164 1a7.574 7.574 0 012.923 2.803c.7 1.2 1.04 2.542 1.04 4.023 0 1.501-.34 2.822-1.04 4.023a7.575 7.575 0 01-2.923 2.803c-1.241.68-2.622 1.02-4.164 1.02zm0-1.962c1.141 0 2.142-.24 3.043-.76.901-.501 1.601-1.222 2.122-2.103.52-.9.781-1.901.781-3.022 0-1.101-.261-2.102-.781-3.003a5.684 5.684 0 00-2.122-2.121c-.901-.5-1.902-.761-3.043-.761-1.12 0-2.141.26-3.042.76a5.596 5.596 0 00-2.142 2.122c-.52.901-.781 1.902-.781 3.003 0 1.12.261 2.122.781 3.022.521.881 1.221 1.602 2.142 2.102.901.52 1.922.761 3.042.761zm21.219-6.165c1.04.24 1.821.68 2.362 1.32.52.641.8 1.442.8 2.443 0 1.321-.5 2.362-1.461 3.083-.981.74-2.382 1.1-4.244 1.1h-7.006V4.063h6.586c1.681 0 3.003.34 3.943 1.021.941.68 1.402 1.662 1.402 2.923 0 .84-.201 1.541-.621 2.122-.42.58-1.001 1.02-1.761 1.32zm-7.367-.64h4.264c1.061 0 1.881-.201 2.442-.621.56-.44.841-1.061.841-1.862 0-.82-.281-1.441-.861-1.882-.561-.42-1.381-.64-2.422-.64h-4.264v5.004zm4.784 6.865c2.342 0 3.523-.88 3.523-2.642 0-.861-.3-1.521-.88-1.922-.601-.42-1.482-.64-2.643-.64h-4.784v5.204h4.784zm16.114-8.267c1.822 0 3.223.42 4.184 1.221.98.82 1.461 2.022 1.461 3.623 0 1.681-.521 2.963-1.561 3.823-1.041.881-2.543 1.322-4.484 1.322h-6.326V4.063h2.182v5.345h4.544zm-.48 8.267c1.261 0 2.242-.3 2.922-.88.681-.561 1.021-1.402 1.021-2.503 0-2.102-1.321-3.143-3.943-3.143h-4.064v6.526h4.064zm8.567-13.612h2.162v15.334h-2.162V4.063z" fill="#000"/></svg>